<?xml version="1.0" encoding="UTF-8"?>
<svg xmlns="http://www.w3.org/2000/svg" id="Outline" viewBox="0 0 512 512" width="512" height="512"><path d="M472,248H231.215L209.435,37.454a23.915,23.915,0,0,0-47.577,4.922L162.44,48H24a8,8,0,0,0-8,8V88a8,8,0,0,0,8,8V272a24.028,24.028,0,0,0,24,24v80a80.091,80.091,0,0,0,80,80h51.486A32.934,32.934,0,0,0,168,481v7a8,8,0,0,0,8,8H400a8,8,0,0,0,8-8v-7a33.056,33.056,0,0,0-26.7-32.4L369.147,403.23a147.8,147.8,0,0,0,54.088-25.453c25.836-19.361,47.4-48.485,64.092-86.565a8,8,0,0,0,.378-1.087A23.984,23.984,0,0,0,472,248Zm8,24a8.009,8.009,0,0,1-8,8H200V264H472A8.009,8.009,0,0,1,480,272ZM168,101.745l16,154.668V280H166.624A23.885,23.885,0,0,0,168,272Zm11.769-67.131A7.915,7.915,0,0,1,193.52,39.1L215.13,248H199.215L177.773,40.729A7.827,7.827,0,0,1,179.769,34.614ZM32,64H160V80H32Zm8,208V96H152V272a8.009,8.009,0,0,1-8,8H48A8.009,8.009,0,0,1,40,272Zm72,52.824c7.871,17.778,21.4,34.416,39.917,48.706A169.322,169.322,0,0,0,182,392H136a24.028,24.028,0,0,1-24-24ZM64,376V296H96v72a40.045,40.045,0,0,0,40,40h69.575L197,440H128A64.072,64.072,0,0,1,64,376Zm303.272,82.07A8,8,0,0,0,375,464a17.023,17.023,0,0,1,16.971,16H184.029A17.023,17.023,0,0,1,201,464a8,8,0,0,0,7.728-5.93L222.8,405.543A135.984,135.984,0,0,0,248,408h80a180.936,180.936,0,0,0,25.392-1.751ZM328,392H248c-28.774,0-61.04-11.64-86.309-31.138-24.148-18.632-38.551-41.4-41.233-64.862H467.486C435.956,360.563,390.224,392,328,392Z"/><path d="M96,160a24.038,24.038,0,0,0,23.533-19.289l4.889,2.444a8,8,0,0,0,7.156-14.31s-16.965-8.422-17.46-8.558A23.993,23.993,0,1,0,96,160Zm0-32a8,8,0,1,1-8,8A8.009,8.009,0,0,1,96,128Z"/><path d="M329.94,95.761a8,8,0,0,0,0-15.522A46.892,46.892,0,0,1,295.761,46.06a8,8,0,0,0-15.522,0A46.892,46.892,0,0,1,246.06,80.239a8,8,0,0,0,0,15.522,46.892,46.892,0,0,1,34.179,34.179,8,8,0,0,0,15.522,0A46.892,46.892,0,0,1,329.94,95.761ZM288,107.819A62.823,62.823,0,0,0,268.181,88,62.823,62.823,0,0,0,288,68.181,62.823,62.823,0,0,0,307.819,88,62.823,62.823,0,0,0,288,107.819Z"/><path d="M378.53,184.411a42.8,42.8,0,0,1-26.94-26.941,8,8,0,0,0-15.18,0,42.8,42.8,0,0,1-26.94,26.941,8,8,0,0,0,0,15.178,42.8,42.8,0,0,1,26.94,26.941,8,8,0,0,0,15.18,0,42.8,42.8,0,0,1,26.94-26.941,8,8,0,0,0,0-15.178ZM344,206.432A59.206,59.206,0,0,0,329.567,192,59.206,59.206,0,0,0,344,177.568,59.206,59.206,0,0,0,358.433,192,59.206,59.206,0,0,0,344,206.432Z"/><path d="M456,128h-8v-8a8,8,0,0,0-16,0v8h-8a8,8,0,0,0,0,16h8v8a8,8,0,0,0,16,0v-8h8a8,8,0,0,0,0-16Z"/></svg>
