<svg id="Capa_1" enable-background="new 0 0 512.147 512.147" height="512" viewBox="0 0 512.147 512.147" width="512" xmlns="http://www.w3.org/2000/svg"><g><path d="m437.666 234.445h-260.193c3.462-5.247 5.484-11.524 5.484-18.267v-64.974c0-4.142-3.358-7.5-7.5-7.5s-7.5 3.358-7.5 7.5v64.974c0 10.072-8.194 18.267-18.267 18.267h-69.797c-10.371 0-18.808-8.438-18.808-18.808v-125.784h106.872v25.331c0 4.142 3.358 7.5 7.5 7.5s7.5-3.358 7.5-7.5v-77.091c0-13.584-9.669-25.375-22.99-28.035l-43.932-8.772c-34.192-7.84-70.926 21.268-69.949 57.363v156.987c0 14.152 8.744 26.294 21.111 31.325-14.697 20.361-1.693 49.398 22.855 49.482h58.671l23.883 44.61h-37.576c-13.571 0-24.612 11.041-24.612 24.612v49.415c0 13.571 11.041 24.612 24.612 24.612h38.744c.94 1.158-17.302 38.473-17.429 39.785-6.886 13.987 4.379 32.95 21.087 32.659h225.239c17.298.538 29.576-20.697 19.258-35.96l-44.925-67.471c29.951-14.861 48.138-33.404 59.275-83.248.743-4.075-1.959-7.98-6.034-8.723-4.074-.745-7.981 1.959-8.723 6.034-18.802 86.883-73.049 73.895-104.74 83.975-4.062.812-6.697 4.763-5.885 8.824.713 3.566 3.844 6.032 7.347 6.032.487 0 .982-.048 1.478-.147l42.141-8.423 47.581 71.459c2.979 4.286.534 12.317-6.773 12.647h-225.239c-4.853-.211-9.719-4.656-7.416-11.486l18.094-40.071c.438-.97.665-2.022.665-3.086v-101.136c0-1.235-.305-2.451-.888-3.54l-22.15-41.373h271.223c17.626.212 30.868-16.246 28.934-33.772-.001-15.564-12.664-28.226-28.228-28.226zm-376.581-175.796c-.706-25.865 25.587-48.56 52.012-42.653l43.932 8.772c5.245 1.551 10.7 5.255 10.928 13.325v36.761h-106.872zm73.945 366.044c-5.3 0-9.612-4.312-9.612-9.612v-49.415c0-5.3 4.312-9.612 9.612-9.612h38.744v26.819h-24.178c-4.142 0-7.5 3.358-7.5 7.5s3.358 7.5 7.5 7.5h24.178v26.819h-38.744zm315.863-157.183c0 7.683-6.25 13.934-13.934 13.934h-346.908c-20.323-.949-17.119-31.962 1.963-31.999h345.652c7.293 0 13.227 5.934 13.227 13.227z"/><path d="m127.393 35.256h-21.354c-4.142 0-7.5 3.358-7.5 7.5s3.358 7.5 7.5 7.5h21.354c4.142 0 7.5-3.358 7.5-7.5s-3.358-7.5-7.5-7.5z"/><path d="m275.356 124.204c4.142 0 7.5-3.358 7.5-7.5v-24.114c0-4.142-3.358-7.5-7.5-7.5s-7.5 3.358-7.5 7.5v24.114c0 4.142 3.358 7.5 7.5 7.5z"/><path d="m275.356 181.674c4.142 0 7.5-3.358 7.5-7.5v-24.114c0-4.142-3.358-7.5-7.5-7.5s-7.5 3.358-7.5 7.5v24.114c0 4.142 3.358 7.5 7.5 7.5z"/><path d="m292.034 140.882h24.114c4.142 0 7.5-3.358 7.5-7.5s-3.358-7.5-7.5-7.5h-24.114c-4.142 0-7.5 3.358-7.5 7.5s3.358 7.5 7.5 7.5z"/><path d="m234.564 140.882h24.114c4.142 0 7.5-3.358 7.5-7.5s-3.358-7.5-7.5-7.5h-24.114c-4.142 0-7.5 3.358-7.5 7.5s3.358 7.5 7.5 7.5z"/><path d="m343.704 192.763h9.178v9.178c0 4.142 3.358 7.5 7.5 7.5s7.5-3.358 7.5-7.5v-9.178h9.177c4.142 0 7.5-3.358 7.5-7.5s-3.358-7.5-7.5-7.5h-9.177v-9.177c0-4.142-3.358-7.5-7.5-7.5s-7.5 3.358-7.5 7.5v9.177h-9.178c-4.142 0-7.5 3.358-7.5 7.5s3.358 7.5 7.5 7.5z"/><path d="m384.397 89.691c4.053 0 7.338-3.285 7.338-7.338 0-4.052-3.285-7.338-7.338-7.338-4.052 0-7.338 3.285-7.338 7.338s3.285 7.338 7.338 7.338z"/></g></svg>